<?xml version="1.0" encoding="utf-8"?>
<!-- Generator: Adobe Illustrator 22.1.0, SVG Export Plug-In . SVG Version: 6.00 Build 0)  -->
<svg version="1.1" id="Layer_1" xmlns="http://www.w3.org/2000/svg" xmlns:xlink="http://www.w3.org/1999/xlink" x="0px" y="0px"
	 viewBox="0 0 920 332.8" style="enable-background:new 0 0 920 332.8;" xml:space="preserve">
<style type="text/css">
	.st0{fill:none;}
	.st1{opacity:0.3;fill:none;stroke:#CBCBCB;stroke-linejoin:round;stroke-miterlimit:10;}
	.st2{fill:#FFFFFF;}
	.st3{font-family:'Roboto-Regular';}
	.st4{font-size:12.2052px;}
	.st5{fill:#BBDEFB;}
	.st6{fill:#EC407A;}
	.st7{font-family:'RobotoCondensed-Bold';}
	.st8{font-size:20px;}
	.st9{font-family:'RobotoCondensed-Regular';}
	.st10{font-size:15.2564px;}
</style>
<rect x="73.5" y="70.7" class="st0" width="846.5" height="236.4"/>
<line class="st1" x1="73.5" y1="307.1" x2="73.5" y2="70.7"/>
<rect x="73.5" y="70.7" class="st0" width="846.5" height="236.4"/>
<text transform="matrix(1 0 0 1 69.499 318.8688)" class="st2 st3 st4">0</text>
<line class="st1" x1="224.6" y1="307.1" x2="224.6" y2="70.7"/>
<rect x="73.5" y="70.7" class="st0" width="846.5" height="236.4"/>
<text transform="matrix(1 0 0 1 218.5142 318.8688)" class="st2 st3 st4">10</text>
<line class="st1" x1="375.8" y1="307.1" x2="375.8" y2="70.7"/>
<rect x="73.5" y="70.7" class="st0" width="846.5" height="236.4"/>
<text transform="matrix(1 0 0 1 369.6787 318.8688)" class="st2 st3 st4">20</text>
<line class="st1" x1="527" y1="307.1" x2="527" y2="70.7"/>
<rect x="73.5" y="70.7" class="st0" width="846.5" height="236.4"/>
<text transform="matrix(1 0 0 1 520.8428 318.8688)" class="st2 st3 st4">30</text>
<line class="st1" x1="678.1" y1="307.1" x2="678.1" y2="70.7"/>
<text transform="matrix(1 0 0 1 672.0078 318.8688)" class="st2 st3 st4">40</text>
<line class="st1" x1="829.3" y1="307.1" x2="829.3" y2="70.7"/>
<text transform="matrix(1 0 0 1 822.6914 318.8688)" class="st2 st3 st4">50 compositions</text>
<text transform="matrix(1 0 0 1 32.6079 299.0641)" class="st2 st3 st4">Faure</text>
<text transform="matrix(1 0 0 1 28.585 275.4186)" class="st2 st3 st4">Haydn</text>
<text transform="matrix(1 0 0 1 33.8237 251.774)" class="st2 st3 st4">Ravel</text>
<text transform="matrix(1 0 0 1 25.4863 228.1315)" class="st2 st3 st4">Dvorak</text>
<text transform="matrix(1 0 0 1 18.5312 204.486)" class="st2 st3 st4">Cambini</text>
<text transform="matrix(1 0 0 1 21.2368 180.8434)" class="st2 st3 st4">Brahms</text>
<text transform="matrix(1 0 0 1 14.8066 157.1989)" class="st2 st3 st4">Schubert</text>
<text transform="matrix(1 0 0 1 24.896 133.5524)" class="st2 st3 st4">Mozart</text>
<text transform="matrix(1 0 0 1 35.9692 109.9093)" class="st2 st3 st4">Bach</text>
<text transform="matrix(1 0 0 1 6.0044 86.2638)" class="st2 st3 st4">Beethoven</text>
<rect x="73.5" y="289.4" class="st5" width="15.1" height="11.8"/>
<rect x="73.5" y="265.7" class="st5" width="15.1" height="11.8"/>
<rect x="73.5" y="242.1" class="st5" width="15.1" height="11.8"/>
<rect x="73.5" y="218.4" class="st5" width="30.2" height="11.8"/>
<rect x="73.5" y="194.8" class="st5" width="45.3" height="11.8"/>
<rect x="73.5" y="171.1" class="st5" width="120.9" height="11.8"/>
<rect x="73.5" y="147.5" class="st5" width="136" height="11.8"/>
<rect x="73.5" y="123.9" class="st5" width="166.3" height="11.8"/>
<rect x="73.5" y="100.2" class="st5" width="453.5" height="11.8"/>
<rect x="73.5" y="76.6" class="st6" width="831.4" height="11.8"/>
<text transform="matrix(1 0 0 1 296.001 28.2736)" class="st2 st7 st8">The Man that Rules MusicNet’s Database</text>
<text transform="matrix(1 0 0 1 194.8789 53.0929)" class="st2 st9 st10">In MusicNet&apos;s database, Beethoven has 55 compositions, steamrolling Bach and Mozart.</text>
</svg>
