<svg id="Layer_1" data-name="Layer 1" xmlns="http://www.w3.org/2000/svg" viewBox="0 0 920 289.89"><defs><style>.cls-1{font-size:11.64px;font-family:Roboto-Regular, Roboto;}.cls-1,.cls-5{fill:#fff;}.cls-2,.cls-3,.cls-4{fill:none;}.cls-2{stroke:#ec407a;stroke-linejoin:round;}.cls-4{stroke:#222;stroke-linecap:square;stroke-miterlimit:10;}.cls-5{isolation:isolate;font-size:19.41px;font-family:RobotoCondensed-Bold, Roboto Condensed;font-weight:700;}</style></defs><title>test</title><text class="cls-1" transform="translate(78.68 286.74)">0</text><text class="cls-1" transform="translate(229.45 286.74)">500</text><text class="cls-1" transform="translate(382.29 286.74)">1000</text><text class="cls-1" transform="translate(537.21 286.74)">1500</text><text class="cls-1" transform="translate(692.13 286.74)">2000</text><text class="cls-1" transform="translate(847.05 286.74)">2500 seconds</text><text class="cls-1" transform="translate(0 249.56)">225</text><text class="cls-1" transform="translate(0 219.08)">250</text><text class="cls-1" transform="translate(0 188.6)">275</text><text class="cls-1" transform="translate(0 158.13)">300</text><text class="cls-1" transform="translate(0 127.65)">325</text><text class="cls-1" transform="translate(0 97.18)">350</text><text class="cls-1" transform="translate(0 66.7)">375 Hz</text><path class="cls-2" d="M789.69,166l.31-7,.31.83.3,2.32.62,3.22.31-.45.31-1.83.31.12.31-1.13.31-.79.31,1,.62,3.12.31,1.13.62-1.65.31-1,.31.17.31.44.31,4.37.31,6.68.62,19.74.31,11.51.31,5.73.31,3.39.31-.66.31-2.18.31.41.31,3.93.31.66.31-.64.31,2.59h.31l.31-.42.31,1.57.31,2,.31.7.31-1.32.62,1.62.31,0,.31-.26.31,2.64.62-3.55.93-2.57.62-8.32.31-4.89.31-6.5.31-10.51.31-4.07.31-1,.31,2.36.93,11.86.31.5.31,1.7.31.56.31-.93.31-1.17.31,3.68.3-4,.31-5.32.31-3.05.31-3.87.31-1.9.31-3.07.31,2.45.62,7.08.62,3.1.31,2.74.31-1.11.31-1.8.62-11,.31,0,.31-3.74.31-5.35.62-5.28.31-.93.31,1.7.31,0,.31,2.66.31,1.55.31-.17.31-.38.62.57.31-1.06.31.41.31-1.24.31.82.62-2.61.31-2,.31,1.19.31.47.93.79.31-1.13.31.15.31.39.31,1.46.31-1.83.31,1.55.31,2.32.31.59.31,2.39.31,6.3.62,20.75.31,3.59.31-2.71m-46.17-54.51.31,26.94.31,7.91.62,5.81.31,1,.31-.32.31.43.62,1.48.31-.74.62-3.64.31-.39.31,2.78.31,22.51m-23.86-44.9h.62l.31,3.43h.31l.31-4.25.31-.67.31.12.31.85.31.38.31-.29.31.08.31-1.87.31.94.31-.47.31.12.31.78h.31l.31-.15.31.74.31,3.62.31,6.33.31,13.16.31,4.66.62,19.21.31,7.19.61,7.94.31-.7.31-10.63.31,2.9.31.7.31,2.17.31-.59.31.55.62.37.62-.14.31-.09.31-.89.31-1.73.31-.48.31-1.28.31,2.87.31.4.31,1.06.31,6.15M742.59,190h.31l.31-2.09.31,4.12.31,2.9.31-.73.31.78.62,2.15.31-.87.62-1.36.31.2.31.65.31,5.8.31,7.78.31-10.76.31.87.31-2.15.31-5.33.31,2.64m-30.06,26.07.31,3.67.31-3.43.31,3,.31,2.1.31-1.36.31,4,.31.91.31-1,.31.36.62-1.93.31-1.69.31-1,.31.62.62-2.45.31-.21.31.92.31.4.31-.38.31,1.33.31.23.31,1.09.31.41.31-.52.31.18.31-.83.31-.52.31,1.19.31-.09.31,2.07.31-.4.31,3.19.31.56.31-.52.31-.83.31-3,.3-6.72.31-.7.31-7.71.62-2.61.31,0,.31,2.68.31,6.4.62,9.35.31,2.7.31,1.87.31-1.7.31-5.25.31-1.69.31-.26.62,2.63.31.28.31,1.32.31-.46.31-1.66.31-2.28.62,1.23.31.07.31-2.3.31.94.31-3.67.31-7.07.31-10.53m-90.47-8.57.31,4.84.31,12.71.31,3.38.31.23.3-1,.31,2.73.31.13.62-2.44.31-3.36.93-14.62.31-1.23.31-3.76.31-2.7.62-3.45.31-1.08.31,1.92.31,5.67.31,1.7.31,2.27.31,5.16.31,7.91.62,23.52.31,13.08.31,5.36.31-5.16.31,13.63.62,5.15.62.24.31.11.31-.41.31.19.31-1.27.31-2.46.31-.27.31,1.71.31-.54.31-2.72.31-.25.31-.5.62.65h.31l.31-.19.31-.45.31.15.31.81.31-.48.31,1.37h.31l.31,2.09.31,1,.31.06.31,2,.31-.66.31-6.21.31.92.62-12.78.62-14.64.31-5.88.31-3,.3-.76.31-.57.62,2.75.31-.82.31.18.31,1.34.31.26.31,2.08.31-2.06.31,1.59.31-.13.31,1.21.31.66.31-.3.31.41.31-.47.31.07.31.43h.31l.31-.57.31.15.31.07.31-1.58.93-6.63.31-3.33.31-2.22.31-4.13.31,4.2.31-2.26.31-4.55.31,7.16m-59.18-10.65.62-4.41.31-5.54.31-3.29.31-5.37.31-2.58.31.3.31-1.63.31-.79.31.12h.31l.31-1.17.31.17.62,1.88.31,0,.31.19.31-1.36.31-1.87.31-4.51.31-2.1.31,10.51.31,4.09.31,1.06.31-5.29.31-6.65.62-28,.3-1,.31,4.4.31,7,.31,4.84.31,2.47.31,1,.31-.26.31-2,.31-3.06.31-4.43.62-5.7.31-1,.31.92.31,10.83.31,20.56.31,3.65.31,14.56h.31l.31,3.44h.62l.31-3.44.31-13.73.31-10.3.31-5.17.31,4,.31-8.82.62-11.65.31.84.31,1.61.31,2.33.31-1.79.62-8.48.31-7.44.31-4.32.62-10.15.31-2.08.31-2.8.62-2.58L645,122l.31,4.54.31,8.62.31.58.31,16.67m-79,30.79.31-3.43.31,2.29.31-1.36.31-.35.31.5.31-.21.31.91.31.51.31,2.41.31,1.48.31-.45.3-.68.31-1.18.31.12.31,0,.31.45.62,1.63.31-.4.31.26.31-.54.31,1.68.31-1.07.31.55.31.27.31.78.31.11.31-.64.31-1.46.31.78.31-1.17.31.73.31.39.31-1.92.31-2.91.31-5,.31-3.44.31,4.68m-62.59-94,.31-13.74.62-7.81.62,1.61.31,1.83.62,6,.31.45.31-.91.31-1.4.31.5.31.06.31.19.31,1,.31-1.34.31,1.69.31-.82.31.84.31.35.31-.46.31-1,.31.14.31-.57.31,1.12.31-.1.31-.43,1.24,1,.31,1.21.31.41.31-1.2.31-.75.31,1.27.31.42.31-.16.31.79.31,1.3.62,1.91.31.58.31.26.31-2,.31,2.24.61-5.41.31-1.55.62-5.65.31-4.12.31-2,.31-1.34.31.47.31,4.09.93,15.44.31.09.31-.89.31-4.89.62-7.83.31-4.52.31-2.88.31-.18.31,1.72.31,6.15.62,5.42.31,4.9L539,78.5l.62,13.62L540.88,135l.31,1.07.31,1.64.31-1.87.31,8.56.31,2.27.62,1,.31.16.31.73.31-.39.62,2,.31,1,.31.34.31-.22.62.33.31-.24.62-1.65.31,0,.62-2.95.31-.86.31,3.48.93,31.22.31,18.38.62,21.83.61,11.74.31,1,.31-1.08.31.5.93-4.27.31-1.54.62-.09.31-6.1h.31l.31.33.31.45.31,1.52.31-.25.31-.5.31.52.31-.83.31-1.39.31-.75.62-2.05.31-.39.31.32.31-1.69.31.17.62.8.31,4.7L560.4,232l.31,3.47m-81.8-66.16.31,7.09.31,4.73.31,2.19.31,3.92.31.81.31-1.7.31.47.31-3,.31-1.31.31-.87.31-1.18.31,5.74.31,19.63.62-10.43.31-12.46.31-19.49.31,2.44.31-4.14.31-.74.31,0,.31,2,.31-.15.31.15.31-2.4.31.42.62-3.33.31-.92.31.46.31-.95.31.55.31-.79.31-.26.31,1.95.31,3.84.31,1.88.31-.71.31-7.41,1.54-58.33.31-7.46.31.6.31,5,.62,13.2.31,5.28.31,2.92.31-.8.31.8.62-3.53.31.85.31,5.35.31,21.65.62,30.81.31-.32.31,7.62.31,1.28.31-5.65.31-12.47.31-.21.62,2.82.31,1.15.31-1,.31-.32.31.11.31-.62.31,1.19.31-.86.62,3.66.31.87.31.39.31.25L504,167l.31-5.85.93-25.76.31-11.17.31-7.29.31-9,.31-1.2.31-2.25.31,2.87.62,10.1.62,4.85.31-.73.31-1.79.31-3.86.31-2.62.31-1.57.31,6.79M356.83,164.86l.31,7.43.31-5.22.31,1.46.31-.54.31-.24.31.14.31-.11.62-1.47.31.46.62-.83h.31l.31-.06.31-.91h.31l.62-1.21.31.37.31,1.4.31,1.79.31,6.52.31,9.22.31,15.08.31,11.49.31,8.76.31-6.5.31-.48.31-2.31.31,2.52.31,8.86.31,6.24.31,3.4.31,1.64.31.8.31.06,1.24-2.73.31,1.42.31-1.37.31-.74.31.08.31-1.59.31.78.31-1.27.3-.31.31,0,.31.73.31-1.22.31,1.72.31-1.07.31.72.31-.12.31.45.31-.42.31.25.31-.76.31.07.31-1.08.31.13.62.93.93-.13.31-.55.31.48.31.3.31-.06.62.68.31-.05.31-1.15.31-.31.31-.51.31.46.62-4.51.31-4,.31-2.41.31-.87.31-.55.31-1.43.31.61.62,3.22.62,9.43.62,7,.62,4,.31.1.31-.7.93-10.32.62-5.71.31.24.31.74.31,4.13.62,3.33.31,1.61.62-.28.31-.83.31.43.3,0,.31-.42.31-.6.31-3.08.31-1.06.31-4.56.62-12.16.31-4.18.31-15.28.31-2,.31-.16.31-1.19.31.66.31,1,.31,2,.31.94.31-.83.31,2.86.31,6.1.31-6.15.31-.39.93-7.61.31-2.05.31.6.31-.21.31,2.9.62,7.2.31,3.11.31.86.31-.57.31-2.73.31-4.42.62-15.12.31-11.21.31,4.05.31-.63.31-.24.31-.12.31-.27.31.69.31.25.31,1.13.31.38.31-.6.62,3.57.31.43.31-1.35.31.77.31,0,.31-1.66.31-1,.31.36.31-1.65.31,1,.31-.17.31.42.31.8.31-.94.61,2.6.31,2.49.31.7.31,2.72.31,2,.31,6.09.31,1.95.31-.44.31,11.87.31,1.43m-60.11,32.8.31,2.35H355l.31,1.56.31,2.45.31-3.9m-11.77-47.94.31.72.31,2.47.31,4.45.31.52.31,1.17.31-1.26.31-1.68.31-.44.31-1,.31-.29.31-1.25.31,1.06.31-.52.31-.77.31.29.31-.16.31.12.31,0,.31-.37.31-1.29.31-.58.31,3.63.31,7.55m-35.95-35.19.31-.39.31,1.46.62,4,.31,1,.62,3.21.31-.7.31.5.31-2.12.31-.94.31-.43.31-2.51.62-1,.31.43.31-1,.31.26.31,1.54.31.28.31,1,.31.48.31-.52.62.17.31.18.93,1.5.31-.51.31-.22.31-.49.31.3.31.59.31-1.48.31-.84.31,0,.31,1.11.31-.77.31.77.31,2.33.31,3.77.31,9.26.31,1.48L330.19,217l.62,12.23.31,1.8.31-3.27.3-7.21H332l.31.39.31.09.93-1.71.31.32.31.14.31.31.31,0,.62-.11.31.43.31.27.31-.64.31-.07.31.46.31.22.31.49.31.63.31-.74.31.61.31-.07.31,1.24.31,5.9.31-5.57m-38.11-33.39.31-7.75.31,7,.31,0,.31.84.31-.74.31-.46.31.86.31-.34.31.9.31.32.62-1.87.31.81.31,2.65.31,11.49M289,224.36l.31,3.43.31,1.67.31-1.9.31-1.24.31,1.24.31-1.07.31.63.31-.35.61-2.54.31-.69.31-1.12.31-.12.31.53.31-.11.31.19.31,0,.31.3.31-.75.31-.25.31,1.41.31-.14.31,1.31.31-2.72.62-19.77.31-17.7.62-71.57m-70,90.81.62,14.94.31-4.72.31-2.92.31,1,.31,1.88h.31l.31.73.62-2.68.31-.11.31.57L232,215l.31,1.17.31-.71.31-1.4.62-4.43.31-6,.62-9.24.62-10.9.31-2.39.31,2.29.31-.2.31,1.69.31-.78.31,1.57.31-1.27.31,1,.31-.63.31-.93.31,1.69.31-.89.31.2.62-.84.31-.21.31,4.51.93,23.88.93,25.88.31-1,.31,2.65.62,15.81.31,3.84.31.44.31-.61.31-1.62.31-1.18.31-1.5.31-.39.31-1.05h.31l.31-2.19.31-.16.31-1.36.31-.22.31-.47.31.27.31-.9h.31l.31-3.65.31-1.32.31-3.93.62-20.12.31-19.67.31-7.94.31-3.45.31-8.46.61-4.63.31.39.31-.57.62,6.07,1.24,37.58.31,5.29.62,4.69.31-1.82.31-1,.31-2.38.31-.39.31-.07.31.23.31,2.1.31,1.39.31,4.09.31-.66.62,2.36.31-.22.31-1.67.31-2.51.62-6.73.31-5.48.31-2,.31-1.2.31.76.31,2.15.31,2.71.62,10.8.31,4.26.31,2.86.31,1.41.31-.5.62-4.78.62-8.3.62-10.34.31-.72.31-.36.31,1.41.62,9.56.62,7.2.31,6.14.31,1.31,1.24-18.16.31-3.1.31-.5.31-1.75.31,1.18.3,3.07.31,6.33.31,2.38.62-.54.31,3,.31,2,.31-.31.62-6.75.31-5.2.31-7.19.31-2.29.31,2.43.31,1.3.31,3.35.31,4.87.31,10M186.73,263l.31-23.88,1.24-58.57.31-4.75.31,2.73.31,2,.31-.56h.31l.31-.18.31.56.62-2.92.31-.67.31-1.37.3,1.45.31,3.58.31-12.3.31-1.1.31-5.27.31-3.88.31.39.31,2.57.31.4.31.88.31,1.15.31,1.78.31,1.14.31.41.31,0,.31-1.48.62-3.86.31-3.16.31-.18.31,3.16.62,11.64.31,7,.31-.12.31,3,.31-1.72.31-3.51.31-8.95.31-6.43.31-2.2.31-1.28.31.86.31.56.31-.19.31-3.5.31-1.47.31.93.62,2.81.31,0,.31,2.86.31,2.12.31-1.67.31-4.58.62-13.52.62-15.3.31-5.73.62-5.21.31.23.31.76.31,3.07.31-.31.31,1,.31.23.31-.27.31,1.75.31.24.31-.63.31-.35.31-1.37.31-.42.61-.13.31-.53.31-.18.31.26.31.62.62-.39.31.32.31-.47.31-.07.31,1,.31-.61.31-.39.31-.22.31-.74.31-.06.31.49.31-.28.31,0,.62-1.23.31-.28.31.43.31-.4.31-.65.31.48.31-.3.31.82.31-.29.31.57.31-.54.31.22.31-.3.31.44.31-.92.31,1,.31-6.65.31-.58.31-1.23.31,3.74.31.21.31,3.87M151.1,179.72l.31-.3.31-1,.61,4.5.31,2.74.31,0,.31.78.31-1.08.62,1.78.31,1.07.31-1.3.31,1.67.62-.86.31.28.31-.52.31-.15.31.65.31.94.31.18.62-.9.31.14.31-.81.31.52.31-.13.31.69.31-.17.31,6.27.31-2.82.31-1.42.31-.91.31.21.62-2.64.31-.16.62-2.58.31-.71.31-1.24.31.38.31-.2.31.65.31,4.21.31-7.44L166,208l.31,3.66m-25.1,3.15.31,7.32.31,2.33.31,7,.62-4.61.31-1.15.31.11.31-.27.31-.84.31.15.31-.27.31-.1.31,1.48.31.13.31,5.77.31,1.78.31-7.73m-17.66-67,.31,9.26.62,3.11.31.43.31-1.12.31.9.31-.57.93-3.07.3-1.87.31-.94.31-1.72.31-1.27.31.66.31-.33.62,2,.31,4.95.31,1.76.31-3.5M100,72.32l.31,4.82.31.84.31-.82.31-.44.31-.92.31-.38.31.89.31.52.31-.52.62,1.94.62.54.31-.09.31.11.31-.37.31-.1.31,1.28.31.08.31-.08.31-.19.31-.9.31-.42.31,0,.31-.22.62-.6.31.44.31-.37.31.09.31-2.35.31-.94.31-.64.31,1.14.62-.59.31,1.49.31-.05.31,1,.3-.64.31-.3.31.92.31-1,.62,1.6.31,2.28.31.35.31,2.31.31,1.47.31-.81h.31l.31-1.39.93-5.72.31,1.45.31,4.11.31,5.29.31-1.76.31-2.52.31-1.79.31-1.22.31,2.4.31-2.84.31-4.92.31,4.29.62-6.07.31,4.15.31,5.29.62,5.65.31-.55.31-3.58.31.95.31-.88.31-2.2.31-1,.31.52.31,1.69.62,5.84.31,3.94.31,10.13m-43.38,135,.93,13.82.62,8.12.31,5,.31,1.38.31-3.61.62-36.78L86.34,189,87,166.66l.31-3.69.31-4.68.31-3.58.31-1.89.31.27.31-.2.62.36.93-3.58.31.83.31,5.18.31-.32.62-30.58.3-5.59.31-1,.31.36.31.1.31,1.4h.31l.31-1,.31.39.31-1,.31-.19.31-.39h.31l.31-4.2.31,3.84" transform="translate(0 -5.19)"/><rect class="cls-3" x="45.38" y="41.47" width="819.35" height="228.85"/><line class="cls-4" x1="45.38" y1="270.32" x2="45.38" y2="41.47"/><line class="cls-4" x1="45.38" y1="270.32" x2="864.73" y2="270.32"/><text class="cls-5" transform="translate(371.7 16.6)">A Sample Melody Line</text></svg>